<svg width="1440" height="768" viewBox="0 0 1440 768" fill="none" xmlns="http://www.w3.org/2000/svg">
<mask id="mask0_32_2" style="mask-type:alpha" maskUnits="userSpaceOnUse" x="-32" y="-4" width="1501" height="772">
<path d="M29.3678 -3.37863H1151.4H1468L1373.56 213.008L1360.95 767L29.3678 742.012L-31 307.112L29.3678 -3.37863Z" fill="#D9D9D9" fill-opacity="0.8" stroke="#5A95DA"/>
</mask>
<g mask="url(#mask0_32_2)">
<mask id="mask1_32_2" style="mask-type:alpha" maskUnits="userSpaceOnUse" x="257" y="151" width="924" height="753">
<ellipse cx="461.746" cy="375.885" rx="461.746" ry="375.885" transform="matrix(1 0 0 -1 257.156 903.637)" fill="#D9D9D9" fill-opacity="0.8"/>
</mask>
<g mask="url(#mask1_32_2)">
<g opacity="0.1">
<path d="M310.247 770.119V68.8251" stroke="white"/>
<path d="M278.013 770.119V68.8251" stroke="white"/>
<path d="M339.831 770.119V68.8251" stroke="white"/>
<path d="M370.74 769.682V68.3879" stroke="white"/>
<path d="M400.765 769.682V68.3879" stroke="white"/>
<path d="M431.674 769.682V68.3879" stroke="white"/>
<path d="M462.583 769.682V68.3879" stroke="white"/>
<path d="M492.609 769.682V68.3879" stroke="white"/>
<path d="M555.75 770.119V68.8251" stroke="white"/>
<path d="M523.517 770.119V68.8251" stroke="white"/>
<path d="M585.334 770.119V68.8251" stroke="white"/>
<path d="M616.243 769.682V68.3879" stroke="white"/>
<path d="M646.269 769.682V68.3879" stroke="white"/>
<path d="M677.178 769.682V68.3879" stroke="white"/>
<path d="M708.087 769.681V68.387" stroke="white"/>
<path d="M738.112 769.682V68.3879" stroke="white"/>
<path d="M802.137 770.119V68.8251" stroke="white"/>
<path d="M769.903 770.119V68.8251" stroke="white"/>
<path d="M831.721 770.119V68.8251" stroke="white"/>
<path d="M862.63 769.682V68.3879" stroke="white"/>
<path d="M892.656 769.682V68.3879" stroke="white"/>
<path d="M923.564 769.681V68.387" stroke="white"/>
<path d="M954.474 769.681V68.387" stroke="white"/>
<path d="M984.499 769.681V68.387" stroke="white"/>
<path d="M1046.76 770.119V68.8251" stroke="white"/>
<path d="M1014.52 770.119V68.8251" stroke="white"/>
<path d="M1076.34 770.119V68.8251" stroke="white"/>
<path d="M1107.25 769.682V68.3879" stroke="white"/>
<path d="M1137.28 769.682V68.3879" stroke="white"/>
<path d="M1168.19 769.681V68.387" stroke="white"/>
<path d="M1473.73 752.76L33.3927 752.76" stroke="white"/>
<path d="M1473.73 722.135L33.3927 722.135" stroke="white"/>
<path d="M1473.73 691.511L33.3927 691.511" stroke="white"/>
<path d="M1473.73 661.762L33.3927 661.762" stroke="white"/>
<path d="M1474.62 599.202L34.2915 599.202" stroke="white"/>
<path d="M1474.62 631.139L34.2915 631.139" stroke="white"/>
<path d="M1474.62 569.891L34.2915 569.891" stroke="white"/>
<path d="M1473.73 539.266L33.3927 539.266" stroke="white"/>
<path d="M1473.73 509.517L33.3927 509.517" stroke="white"/>
<path d="M1473.73 478.893L33.3927 478.893" stroke="white"/>
<path d="M1473.73 448.268L33.3927 448.269" stroke="white"/>
<path d="M1473.73 418.519L33.3927 418.519" stroke="white"/>
<path d="M1474.62 355.084L34.2916 355.084" stroke="white"/>
<path d="M1474.62 387.021L34.2913 387.021" stroke="white"/>
<path d="M1474.62 325.773L34.2916 325.773" stroke="white"/>
<path d="M1473.73 295.148L33.3928 295.148" stroke="white"/>
<path d="M1473.73 265.399L33.3928 265.399" stroke="white"/>
<path d="M1473.73 234.774L33.3928 234.775" stroke="white"/>
<path d="M1473.73 204.15L33.3928 204.15" stroke="white"/>
<path d="M1473.73 174.401L33.3928 174.401" stroke="white"/>
</g>
</g>
<mask id="mask2_32_2" style="mask-type:alpha" maskUnits="userSpaceOnUse" x="257" y="151" width="924" height="753">
<ellipse cx="461.746" cy="375.885" rx="461.746" ry="375.885" transform="matrix(1 0 0 -1 257.156 903.637)" fill="#D9D9D9" fill-opacity="0.8"/>
</mask>
<g mask="url(#mask2_32_2)">
<g opacity="0.1">
<path d="M310.247 770.119V68.8251" stroke="white"/>
<path d="M278.013 770.119V68.8251" stroke="white"/>
<path d="M339.831 770.119V68.8251" stroke="white"/>
<path d="M370.74 769.682V68.3879" stroke="white"/>
<path d="M400.765 769.682V68.3879" stroke="white"/>
<path d="M431.674 769.682V68.3879" stroke="white"/>
<path d="M462.583 769.682V68.3879" stroke="white"/>
<path d="M492.609 769.682V68.3879" stroke="white"/>
<path d="M555.75 770.119V68.8251" stroke="white"/>
<path d="M523.517 770.119V68.8251" stroke="white"/>
<path d="M585.334 770.119V68.8251" stroke="white"/>
<path d="M616.243 769.682V68.3879" stroke="white"/>
<path d="M646.269 769.682V68.3879" stroke="white"/>
<path d="M677.178 769.682V68.3879" stroke="white"/>
<path d="M708.087 769.681V68.387" stroke="white"/>
<path d="M738.112 769.682V68.3879" stroke="white"/>
<path d="M802.137 770.119V68.8251" stroke="white"/>
<path d="M769.903 770.119V68.8251" stroke="white"/>
<path d="M831.721 770.119V68.8251" stroke="white"/>
<path d="M862.63 769.682V68.3879" stroke="white"/>
<path d="M892.656 769.682V68.3879" stroke="white"/>
<path d="M923.564 769.681V68.387" stroke="white"/>
<path d="M954.474 769.681V68.387" stroke="white"/>
<path d="M984.499 769.681V68.387" stroke="white"/>
<path d="M1046.76 770.119V68.8251" stroke="white"/>
<path d="M1014.52 770.119V68.8251" stroke="white"/>
<path d="M1076.34 770.119V68.8251" stroke="white"/>
<path d="M1107.25 769.682V68.3879" stroke="white"/>
<path d="M1137.28 769.682V68.3879" stroke="white"/>
<path d="M1168.19 769.681V68.387" stroke="white"/>
<path d="M1473.73 752.76L33.3924 752.76" stroke="white"/>
<path d="M1473.73 722.135L33.3924 722.135" stroke="white"/>
<path d="M1473.73 691.511L33.3924 691.511" stroke="white"/>
<path d="M1473.73 661.762L33.3924 661.762" stroke="white"/>
<path d="M1474.62 599.202L34.2912 599.202" stroke="white"/>
<path d="M1474.62 631.139L34.2912 631.139" stroke="white"/>
<path d="M1474.62 569.891L34.2912 569.891" stroke="white"/>
<path d="M1473.73 539.266L33.3924 539.266" stroke="white"/>
<path d="M1473.73 509.517L33.3924 509.517" stroke="white"/>
<path d="M1473.73 478.893L33.3924 478.893" stroke="white"/>
<path d="M1473.73 448.268L33.3924 448.269" stroke="white"/>
<path d="M1473.73 418.519L33.3924 418.519" stroke="white"/>
<path d="M1474.62 355.084L34.2913 355.084" stroke="white"/>
<path d="M1474.62 387.021L34.2911 387.021" stroke="white"/>
<path d="M1474.62 325.773L34.2913 325.773" stroke="white"/>
<path d="M1473.73 295.148L33.3925 295.148" stroke="white"/>
<path d="M1473.73 265.399L33.3925 265.399" stroke="white"/>
<path d="M1473.73 234.774L33.3925 234.775" stroke="white"/>
<path d="M1473.73 204.15L33.3925 204.15" stroke="white"/>
<path d="M1473.73 174.401L33.3925 174.401" stroke="white"/>
</g>
</g>
</g>
</svg>
