<svg width="22" height="26" viewBox="0 0 22 26" fill="none" xmlns="http://www.w3.org/2000/svg">
<path d="M16.016 9.685L6.182 0L4.631 1.5275L7.249 4.10583L1.584 9.685C0.935 10.3242 0.935 11.3533 1.584 11.9817L7.634 17.94C7.953 18.2542 8.382 18.4167 8.8 18.4167C9.218 18.4167 9.647 18.2542 9.966 17.94L16.016 11.9817C16.665 11.3533 16.665 10.3242 16.016 9.685ZM3.531 10.8333L8.8 5.64417L14.069 10.8333H3.531ZM18.7 12.4583C18.7 12.4583 16.5 14.8092 16.5 16.25C16.5 17.4417 17.49 18.4167 18.7 18.4167C19.91 18.4167 20.9 17.4417 20.9 16.25C20.9 14.8092 18.7 12.4583 18.7 12.4583ZM0 21.6667H22V26H0V21.6667Z" fill="url(#paint0_linear_34_40)"/>
<defs>
<linearGradient id="paint0_linear_34_40" x1="22" y1="13" x2="8.41773e-10" y2="13" gradientUnits="userSpaceOnUse">
<stop offset="0.436188" stop-color="#374888"/>
<stop offset="1" stop-color="#04A859"/>
</linearGradient>
</defs>
</svg>
